<svg xmlns="http://www.w3.org/2000/svg" width="99" height="99" viewBox="0 0 99 99" fill="none">
<ellipse cx="49.5" cy="43.2314" rx="49.5" ry="43.2314" fill="#00FFF0"/>
<path d="M85.635 67.6572C85.635 63.5412 84.7067 59.4655 82.9032 55.6628C81.0997 51.8602 78.4562 48.405 75.1238 45.4945C71.7913 42.5841 67.8351 40.2754 63.481 38.7002C59.127 37.1251 54.4603 36.3144 49.7475 36.3144C45.0347 36.3144 40.368 37.1251 36.0139 38.7002C31.6599 40.2754 27.7037 42.5841 24.3712 45.4945C21.0387 48.405 18.3953 51.8602 16.5918 55.6628C14.7882 59.4655 13.86 63.5412 13.86 67.6572L49.7475 67.6572H85.635Z" fill="#FFF500"/>
<ellipse cx="49.5" cy="19.8865" rx="14.85" ry="12.9694" fill="#FF0000"/>
</svg>