<svg xmlns="http://www.w3.org/2000/svg" width="84" height="110" viewBox="0 0 84 110" fill="none">
<rect y="24.75" width="75.8049" height="85.25" rx="16" fill="#00F0FF"/>
<rect x="6.14633" y="54.45" width="63.5122" height="13.2" rx="6.6" fill="white"/>
<rect x="6.14633" y="77" width="63.5122" height="13.2" rx="6.6" fill="white"/>
<path d="M11.7805 61.05H39.439M11.7805 84.15H39.439" stroke="black"/>
<path d="M55.8293 14.025C55.8293 10.3053 57.2053 6.73802 59.6547 4.10783C62.1041 1.47763 65.4262 3.99062e-07 68.8902 0C72.3542 -3.99062e-07 75.6763 1.47763 78.1257 4.10783C80.5751 6.73802 81.9512 10.3053 81.9512 14.025H79.7578C79.7578 10.93 78.6128 7.96179 76.5747 5.7733C74.5367 3.58482 71.7725 2.35534 68.8902 2.35534C66.008 2.35534 63.2438 3.58482 61.2057 5.7733C59.1677 7.96179 58.0227 10.93 58.0227 14.025H55.8293Z" fill="#888888"/>
<rect x="55.8293" y="13.75" width="2.04878" height="9.35" fill="#888888"/>
<rect x="79.9024" y="13.75" width="2.04878" height="9.35" fill="#888888"/>
<rect x="53.2683" y="17.05" width="30.7317" height="32.45" rx="8" fill="#FFE600"/>
<ellipse cx="68.8902" cy="26.675" rx="5.89024" ry="6.325" fill="#FFF9F9"/>
<path d="M67.0667 30.448C67.7746 28.8766 70.0059 28.8766 70.7137 30.448L74.4946 38.8411C75.0909 40.1646 74.1228 41.6625 72.6711 41.6625H65.1093C63.6577 41.6625 62.6896 40.1646 63.2858 38.8411L67.0667 30.448Z" fill="#FFF9F9"/>
</svg>